<svg width="31" height="33" viewBox="0 0 31 33" fill="none" xmlns="http://www.w3.org/2000/svg">
<path d="M3.75 0.25H18.375C19.237 0.25 20.0636 0.59241 20.6731 1.2019C21.2826 1.8114 21.625 2.63805 21.625 3.5V6.75H18.375V3.5H3.75V29.5H18.375V26.25H21.625V29.5C21.625 30.362 21.2826 31.1886 20.6731 31.7981C20.0636 32.4076 19.237 32.75 18.375 32.75H3.75C2.88805 32.75 2.0614 32.4076 1.4519 31.7981C0.84241 31.1886 0.5 30.362 0.5 29.5V3.5C0.5 2.63805 0.84241 1.8114 1.4519 1.2019C2.0614 0.59241 2.88805 0.25 3.75 0.25Z" fill="white"/>
<path d="M20.1463 22.3338L22.4375 24.625L30.5625 16.5L22.4375 8.375L20.1463 10.6662L24.3388 14.875H8.625V18.125H24.3388L20.1463 22.3338Z" fill="white"/>
</svg>
