<svg width="25" height="29" viewBox="0 0 25 29" fill="none" xmlns="http://www.w3.org/2000/svg">
<path fill-rule="evenodd" clip-rule="evenodd" d="M7.14575 1.51037C7.25986 1.28201 7.4353 1.08993 7.6524 0.955634C7.86951 0.821339 8.11972 0.750136 8.375 0.75H16.625C16.8803 0.750136 17.1305 0.821339 17.3476 0.955634C17.5647 1.08993 17.7401 1.28201 17.8542 1.51037L20.2248 6.25H23.5C23.8647 6.25 24.2144 6.39487 24.4723 6.65273C24.7301 6.91059 24.875 7.26033 24.875 7.625C24.875 7.98967 24.7301 8.33941 24.4723 8.59727C24.2144 8.85513 23.8647 9 23.5 9H22.125V24.125C22.125 25.219 21.6904 26.2682 20.9168 27.0418C20.1432 27.8154 19.094 28.25 18 28.25H7C5.90598 28.25 4.85677 27.8154 4.08318 27.0418C3.3096 26.2682 2.875 25.219 2.875 24.125V9H1.5C1.13533 9 0.785591 8.85513 0.527728 8.59727C0.269866 8.33941 0.125 7.98967 0.125 7.625C0.125 7.26033 0.269866 6.91059 0.527728 6.65273C0.785591 6.39487 1.13533 6.25 1.5 6.25H4.77525L7.14575 1.51037ZM15.7752 3.5L17.1502 6.25H7.84975L9.22475 3.5H15.7752ZM11.125 13.125C11.125 12.7603 10.9801 12.4106 10.7223 12.1527C10.4644 11.8949 10.1147 11.75 9.75 11.75C9.38533 11.75 9.03559 11.8949 8.77773 12.1527C8.51987 12.4106 8.375 12.7603 8.375 13.125V21.375C8.375 21.7397 8.51987 22.0894 8.77773 22.3473C9.03559 22.6051 9.38533 22.75 9.75 22.75C10.1147 22.75 10.4644 22.6051 10.7223 22.3473C10.9801 22.0894 11.125 21.7397 11.125 21.375V13.125ZM16.625 13.125C16.625 12.7603 16.4801 12.4106 16.2223 12.1527C15.9644 11.8949 15.6147 11.75 15.25 11.75C14.8853 11.75 14.5356 11.8949 14.2777 12.1527C14.0199 12.4106 13.875 12.7603 13.875 13.125V21.375C13.875 21.7397 14.0199 22.0894 14.2777 22.3473C14.5356 22.6051 14.8853 22.75 15.25 22.75C15.6147 22.75 15.9644 22.6051 16.2223 22.3473C16.4801 22.0894 16.625 21.7397 16.625 21.375V13.125Z" fill="white"/>
</svg>
