<svg width="126" height="114" viewBox="0 0 126 114"  xmlns="http://www.w3.org/2000/svg">
<path  fill-rule="evenodd" clip-rule="evenodd" d="M21.1995 49.2625C39.437 16.9187 48.5558 0.75 62.9995 0.75C77.4433 0.75 86.562 16.9187 104.8 49.2625L107.075 53.2875C122.231 80.1625 129.812 93.6 122.962 103.425C116.112 113.25 99.162 113.25 65.2746 113.25H60.7245C26.837 113.25 9.88705 113.25 3.03705 103.425C-3.81295 93.6 3.7683 80.1625 18.9246 53.2875L21.1995 49.2625ZM62.9995 27.3125C64.2428 27.3125 65.435 27.8064 66.3141 28.6854C67.1932 29.5645 67.687 30.7568 67.687 32V63.25C67.687 64.4932 67.1932 65.6855 66.3141 66.5646C65.435 67.4436 64.2428 67.9375 62.9995 67.9375C61.7563 67.9375 60.5641 67.4436 59.685 66.5646C58.8059 65.6855 58.312 64.4932 58.312 63.25V32C58.312 30.7568 58.8059 29.5645 59.685 28.6854C60.5641 27.8064 61.7563 27.3125 62.9995 27.3125ZM62.9995 88.25C64.6572 88.25 66.2469 87.5915 67.419 86.4194C68.5911 85.2473 69.2495 83.6576 69.2495 82C69.2495 80.3424 68.5911 78.7527 67.419 77.5806C66.2469 76.4085 64.6572 75.75 62.9995 75.75C61.3419 75.75 59.7522 76.4085 58.5801 77.5806C57.408 78.7527 56.7495 80.3424 56.7495 82C56.7495 83.6576 57.408 85.2473 58.5801 86.4194C59.7522 87.5915 61.3419 88.25 62.9995 88.25Z" fill="#FFB82F"/>
</svg>
